HIERARCHY
ROOT Hips
{
	OFFSET -0.001795 -0.223333 0.028219
	CHANNELS 6 Xposition Yposition Zposition Zrotation Yrotation Xrotation 
	JOINT LeftUpLeg
	{
		OFFSET 0.069520 -0.091406 -0.006815
		CHANNELS 3 Zrotation Yrotation Xrotation
		JOINT LeftLeg
		{
			OFFSET 0.034277 -0.375199 -0.004496
			CHANNELS 3 Zrotation Yrotation Xrotation
			JOINT LeftFoot
			{
				OFFSET -0.013596 -0.397961 -0.043693
				CHANNELS 3 Zrotation Yrotation Xrotation
				JOINT LeftToe
				{
					OFFSET 0.026358 -0.055791 0.119288
					CHANNELS 3 Zrotation Yrotation Xrotation
					End Site
					{
						OFFSET 0.000000 0.000000 0.000000
					}
				}
			}
		}
	}
	JOINT RightUpLeg
	{
		OFFSET -0.067670 -0.090522 -0.004320
		CHANNELS 3 Zrotation Yrotation Xrotation
		JOINT RightLeg
		{
			OFFSET -0.038290 -0.382569 -0.008850
			CHANNELS 3 Zrotation Yrotation Xrotation
			JOINT RightFoot
			{
				OFFSET 0.015774 -0.398415 -0.042312
				CHANNELS 3 Zrotation Yrotation Xrotation
				JOINT RightToe
				{
					OFFSET -0.025372 -0.048144 0.123348
					CHANNELS 3 Zrotation Yrotation Xrotation
					End Site
					{
						OFFSET 0.000000 0.000000 0.000000
					}
				}
			}
		}
	}
	JOINT Spine
	{
		OFFSET -0.002533 0.108963 -0.026696
		CHANNELS 3 Zrotation Yrotation Xrotation
		JOINT Spine1
		{
			OFFSET 0.005487 0.135180 0.001092
			CHANNELS 3 Zrotation Yrotation Xrotation
			JOINT Spine2
			{
				OFFSET 0.001457 0.052922 0.025425
				CHANNELS 3 Zrotation Yrotation Xrotation
				JOINT Neck
				{
					OFFSET -0.002778 0.213870 -0.042857
					CHANNELS 3 Zrotation Yrotation Xrotation
					JOINT Head
					{
						OFFSET 0.005152 0.064970 0.051349
						CHANNELS 3 Zrotation Yrotation Xrotation
						End Site
						{
							OFFSET 0.000000 0.000000 0.000000
						}
					}
				}
				JOINT LeftShoulder
				{
					OFFSET 0.078845 0.121749 -0.034090
					CHANNELS 3 Zrotation Yrotation Xrotation
					JOINT LeftArm
					{
						OFFSET 0.090977 0.030469 -0.008868
						CHANNELS 3 Zrotation Yrotation Xrotation
						JOINT LeftForeArm
						{
							OFFSET 0.259612 -0.012772 -0.027456
							CHANNELS 3 Zrotation Yrotation Xrotation
							JOINT LeftHand
							{
								OFFSET 0.249234 0.008986 -0.001171
								CHANNELS 3 Zrotation Yrotation Xrotation
								End Site
								{
									OFFSET 0.000000 0.000000 0.000000
								}
							}
						}
					}
				}
				JOINT RightShoulder
				{
					OFFSET -0.081759 0.118833 -0.038615
					CHANNELS 3 Zrotation Yrotation Xrotation
					JOINT RightArm
					{
						OFFSET -0.096012 0.032551 -0.009143
						CHANNELS 3 Zrotation Yrotation Xrotation
						JOINT RightForeArm
						{
							OFFSET -0.253742 -0.013329 -0.021401
							CHANNELS 3 Zrotation Yrotation Xrotation
							JOINT RightHand
							{
								OFFSET -0.255298 0.007772 -0.005559
								CHANNELS 3 Zrotation Yrotation Xrotation
								End Site
								{
									OFFSET 0.000000 0.000000 0.000000
								}
							}
						}
					}
				}
			}
		}
	}
}
MOTION
Frames: 6
Frame Time: 0.050000
-0.081650 0.939238 0.100682 5.597891 -4.023785 -4.979948 2.440931 -1.822889 -30.374743 -5.963247 1.686566 28.375322 4.648597 12.410150 18.098766 0.000000 0.000000 0.000000 0.866619 -1.215740 12.448885 -5.803042 2.141434 15.223865 -3.430205 -6.898171 -3.894999 0.000000 0.000000 0.000000 4.553158 -0.660346 9.283617 -1.031343 0.502834 4.584345 -0.887094 5.150954 4.357870 1.726555 -0.957381 -3.230817 0.000000 0.000000 0.000000 -29.252366 -5.806127 -0.505054 -45.976053 1.616592 -5.650825 -10.006306 -31.510307 3.798351 0.000000 0.000000 0.000000 30.506134 -0.791703 -2.367191 43.667630 -2.342696 -5.353613 0.456574 20.331051 0.820782 0.000000 0.000000 0.000000 
-0.079293 0.930834 0.130464 4.351595 -3.581994 -6.209351 1.843744 -1.854757 -27.379636 -3.565208 0.475322 12.333438 5.593186 14.739309 29.400912 0.000000 0.000000 0.000000 2.441129 -1.775501 15.745874 -7.001496 2.414768 15.116684 -3.318262 -6.863840 -3.434064 0.000000 0.000000 0.000000 4.064849 -0.679260 10.226471 -1.400253 0.698145 5.211792 -0.504409 4.291366 4.763710 0.572284 -0.107929 -3.018200 0.000000 0.000000 0.000000 -29.400875 -5.821943 -0.230463 -45.871810 1.195901 -5.602212 -9.791973 -31.440481 3.780429 0.000000 0.000000 0.000000 29.985648 -0.115505 -2.106279 44.247146 -2.028628 -5.292411 -0.391927 22.549031 0.756800 0.000000 0.000000 0.000000 
-0.075659 0.921366 0.166323 3.536719 -5.134557 -6.580256 1.711637 -1.694363 -25.766363 -1.512004 0.116611 4.192991 4.870074 13.405175 26.842517 0.000000 0.000000 0.000000 1.528972 -1.869437 19.029541 -6.049500 2.085233 14.065701 -2.758409 -4.920234 -4.088122 0.000000 0.000000 0.000000 3.405565 -0.613432 10.188260 -2.355221 1.251739 5.070161 0.126900 3.997674 5.856030 -0.320275 0.512298 -2.473942 0.000000 0.000000 0.000000 -29.027800 -5.172536 -0.096341 -46.494153 0.346692 -5.618098 -8.207637 -30.657439 3.348033 0.000000 0.000000 0.000000 28.758501 0.355708 -2.096852 45.539404 -1.311684 -5.148564 0.183700 23.951877 0.887490 0.000000 0.000000 0.000000 
-0.070525 0.912013 0.209118 2.538055 -6.271738 -6.559330 2.157578 -1.446612 -24.212816 -1.357871 0.126751 2.344086 3.159194 10.887521 24.580902 0.000000 0.000000 0.000000 0.300906 -1.822383 22.398354 -4.693701 1.627918 12.583560 -1.701171 -2.587100 -3.034681 0.000000 0.000000 0.000000 2.723557 -0.531604 9.706312 -3.464829 1.877743 4.907986 1.001808 3.179622 5.790728 -1.343074 1.209288 -1.347638 0.000000 0.000000 0.000000 -30.314738 -3.702905 -0.542759 -45.113543 0.553044 -5.681491 -7.827067 -30.553241 3.329121 0.000000 0.000000 0.000000 29.388045 0.054796 -2.966177 44.783084 -2.161408 -5.167278 2.563732 26.035775 1.395830 0.000000 0.000000 0.000000 
-0.063122 0.904273 0.259751 2.401982 -7.847324 -5.308108 2.034243 -1.388648 -24.225971 -1.834471 0.182996 4.980719 3.335627 10.874753 24.727897 0.000000 0.000000 0.000000 -2.207101 -1.197647 23.937414 -3.148521 1.337956 12.929905 -0.407889 -0.156577 -1.398404 0.000000 0.000000 0.000000 2.450108 -0.403847 7.449781 -3.786650 2.139232 5.984983 0.397435 3.782678 5.528622 -1.333736 1.303428 -3.248751 0.000000 0.000000 0.000000 -30.978354 -4.386170 -0.131224 -44.078597 1.065135 -5.678972 -7.875286 -31.231138 3.415290 0.000000 0.000000 0.000000 28.927622 0.299960 -2.767167 45.574662 -3.432904 -5.673806 4.185102 27.309841 1.833676 0.000000 0.000000 0.000000 
-0.053087 0.902914 0.317154 2.344774 -9.523214 -4.357190 1.596138 -1.416324 -24.785923 -2.273989 0.307829 10.420448 4.047915 11.405060 23.774288 0.000000 0.000000 0.000000 -5.090818 -0.319029 24.097433 -1.652180 1.237313 15.340676 2.446235 3.035635 4.122087 0.000000 0.000000 0.000000 1.544774 -0.294778 6.048638 -4.967023 2.863094 6.246677 0.515442 4.369549 5.472840 -1.301972 1.365977 -5.108563 0.000000 0.000000 0.000000 -31.845564 -4.455699 -0.025012 -41.649184 1.786487 -5.591694 -9.322272 -32.461035 3.987870 0.000000 0.000000 0.000000 29.320842 1.432208 -2.179098 46.228038 -5.111480 -6.317162 4.753117 28.568774 2.047184 0.000000 0.000000 0.000000 
